<?xml version="1.0" encoding="UTF-8" standalone="no"?>
<!-- Created with Inkscape (http://www.inkscape.org/) -->

<svg
   width="1920"
   height="1080"
   viewBox="0 0 1920 1080"
   version="1.1"
   id="svg5"
   inkscape:version="1.1.2 (0a00cf5339, 2022-02-04)"
   sodipodi:docname="arch.svg"
   inkscape:export-filename="/home/aoutnheub/Wallpapers/arch.png"
   inkscape:export-xdpi="96"
   inkscape:export-ydpi="96"
   xmlns:inkscape="http://www.inkscape.org/namespaces/inkscape"
   xmlns:sodipodi="http://sodipodi.sourceforge.net/DTD/sodipodi-0.dtd"
   xmlns="http://www.w3.org/2000/svg"
   xmlns:svg="http://www.w3.org/2000/svg">
  <sodipodi:namedview
     id="namedview7"
     pagecolor="#ffffff"
     bordercolor="#111111"
     borderopacity="1"
     inkscape:pageshadow="0"
     inkscape:pageopacity="0"
     inkscape:pagecheckerboard="1"
     inkscape:document-units="px"
     showgrid="true"
     inkscape:zoom="0.54407938"
     inkscape:cx="979.63646"
     inkscape:cy="604.69118"
     inkscape:window-width="1896"
     inkscape:window-height="1024"
     inkscape:window-x="12"
     inkscape:window-y="12"
     inkscape:window-maximized="1"
     inkscape:current-layer="layer1">
    <inkscape:grid
       type="xygrid"
       id="grid824"
       spacingx="8"
       spacingy="8"
       empspacing="3" />
  </sodipodi:namedview>
  <defs
     id="defs2">
    <clipPath
       clipPathUnits="userSpaceOnUse"
       id="clipPath3056">
      <rect
         style="fill:#ffffff;fill-opacity:1;stroke:none;stroke-width:0.454235;stroke-linecap:round;stroke-linejoin:round;stroke-dashoffset:1.98425"
         id="rect3058"
         width="144"
         height="288"
         x="48"
         y="288" />
    </clipPath>
    <clipPath
       clipPathUnits="userSpaceOnUse"
       id="clipPath3060">
      <rect
         style="fill:#ffffff;fill-opacity:1;stroke:none;stroke-width:0.454235;stroke-linecap:round;stroke-linejoin:round;stroke-dashoffset:1.98425"
         id="rect3062"
         width="144"
         height="288"
         x="1728"
         y="504" />
    </clipPath>
    <clipPath
       clipPathUnits="userSpaceOnUse"
       id="clipPath3060-5">
      <rect
         style="fill:#ffffff;fill-opacity:1;stroke:none;stroke-width:0.454235;stroke-linecap:round;stroke-linejoin:round;stroke-dashoffset:1.98425"
         id="rect3062-5"
         width="144"
         height="288"
         x="1728"
         y="504" />
    </clipPath>
    <clipPath
       clipPathUnits="userSpaceOnUse"
       id="clipPath3056-0">
      <rect
         style="fill:#ffffff;fill-opacity:1;stroke:none;stroke-width:0.454235;stroke-linecap:round;stroke-linejoin:round;stroke-dashoffset:1.98425"
         id="rect3058-2"
         width="144"
         height="288"
         x="48"
         y="288" />
    </clipPath>
    <clipPath
       clipPathUnits="userSpaceOnUse"
       id="clipPath64956">
      <path
         style="fill:#0e0e0e;fill-opacity:1;stroke:none;stroke-width:1.24722px;stroke-linecap:butt;stroke-linejoin:miter;stroke-opacity:1"
         d="m 1672,248 v -56 h 32 v 56 z"
         id="path64958"
         sodipodi:nodetypes="ccccc" />
    </clipPath>
    <clipPath
       clipPathUnits="userSpaceOnUse"
       id="clipPath64960">
      <path
         style="fill:#0e0e0e;fill-opacity:1;stroke:none;stroke-width:1px;stroke-linecap:butt;stroke-linejoin:miter;stroke-opacity:1"
         d="m 1536,240 40,-72 h 24 l -40,72 z"
         id="path64962"
         sodipodi:nodetypes="ccccc" />
    </clipPath>
  </defs>
  <g
     inkscape:label="Layer 1"
     inkscape:groupmode="layer"
     id="layer1">
    <rect
       style="fill:#d8e2dc;stroke:none;stroke-width:1.2063;stroke-linecap:round;stroke-linejoin:round;stroke-dashoffset:1.98425;fill-opacity:1"
       id="rect848"
       width="1920"
       height="1080"
       x="0"
       y="0" />
    <path
       style="fill:#ffffff;fill-opacity:1;stroke:none;stroke-width:1px;stroke-linecap:butt;stroke-linejoin:miter;stroke-opacity:1"
       d="M -168,768 48,312 H 168 L -48,768 Z"
       id="path1001"
       sodipodi:nodetypes="ccccc"
       clip-path="url(#clipPath3056)" />
    <path
       style="fill:#ffffff;fill-opacity:1;stroke:none;stroke-width:1px;stroke-linecap:butt;stroke-linejoin:miter;stroke-opacity:1"
       d="M 72,768 288,312 H 408 L 192,768 Z"
       id="path1001-1"
       sodipodi:nodetypes="ccccc" />
    <path
       style="fill:#ffffff;fill-opacity:1;stroke:none;stroke-width:1px;stroke-linecap:butt;stroke-linejoin:miter;stroke-opacity:1"
       d="M 312,768 528,312 H 648 L 432,768 Z"
       id="path1001-2"
       sodipodi:nodetypes="ccccc" />
    <path
       style="fill:#ffffff;fill-opacity:1;stroke:none;stroke-width:1px;stroke-linecap:butt;stroke-linejoin:miter;stroke-opacity:1"
       d="M 552,768 768,312 H 888 L 672,768 Z"
       id="path1001-1-7"
       sodipodi:nodetypes="ccccc" />
    <path
       style="fill:#ffffff;fill-opacity:1;stroke:none;stroke-width:1px;stroke-linecap:butt;stroke-linejoin:miter;stroke-opacity:1"
       d="m 792,768 216,-456 h 120 L 912,768 Z"
       id="path1001-0"
       sodipodi:nodetypes="ccccc" />
    <path
       style="fill:#ffffff;fill-opacity:1;stroke:none;stroke-width:1px;stroke-linecap:butt;stroke-linejoin:miter;stroke-opacity:1"
       d="m 1032,768 216,-456 h 120 l -216,456 z"
       id="path1001-1-9"
       sodipodi:nodetypes="ccccc" />
    <path
       style="fill:#ffffff;fill-opacity:1;stroke:none;stroke-width:1px;stroke-linecap:butt;stroke-linejoin:miter;stroke-opacity:1"
       d="m 1272,768 216,-456 h 120 l -216,456 z"
       id="path1001-2-3"
       sodipodi:nodetypes="ccccc" />
    <path
       style="fill:#ffffff;fill-opacity:1;stroke:none;stroke-width:1px;stroke-linecap:butt;stroke-linejoin:miter;stroke-opacity:1"
       d="m 1512,768 216,-456 h 120 l -216,456 z"
       id="path1001-1-7-6"
       sodipodi:nodetypes="ccccc" />
    <path
       style="fill:#ffffff;fill-opacity:1;stroke:none;stroke-width:1px;stroke-linecap:butt;stroke-linejoin:miter;stroke-opacity:1"
       d="m 1752,768 216,-456 h 120 l -216,456 z"
       id="path1001-1-7-6-0"
       sodipodi:nodetypes="ccccc"
       clip-path="url(#clipPath3060)" />
    <path
       style="fill:#0e0e0e;fill-opacity:1;stroke:none;stroke-width:1px;stroke-linecap:butt;stroke-linejoin:miter;stroke-opacity:1"
       d="m 1584,240 40,-72 h 24 l -40,72 z"
       id="path1001-1-7-6-2"
       sodipodi:nodetypes="ccccc" />
    <path
       style="fill:#0e0e0e;fill-opacity:1;stroke:none;stroke-width:1px;stroke-linecap:butt;stroke-linejoin:miter;stroke-opacity:1"
       d="m 1680,240 40,-72 h 24 l -40,72 z"
       id="path1001-1-7-6-2-9"
       sodipodi:nodetypes="ccccc" />
    <path
       style="fill:#0e0e0e;fill-opacity:1;stroke:none;stroke-width:1px;stroke-linecap:butt;stroke-linejoin:miter;stroke-opacity:1"
       d="m 1632,240 40,-72 h 24 l -40,72 z"
       id="path1001-1-7-6-2-9-1"
       sodipodi:nodetypes="ccccc" />
    <path
       style="fill:#0e0e0e;fill-opacity:1;stroke:none;stroke-width:1px;stroke-linecap:butt;stroke-linejoin:miter;stroke-opacity:1"
       d="m 1440,240 40,-72 h 24 l -40,72 z"
       id="path1001-1-7-6-2-9-1-5"
       sodipodi:nodetypes="ccccc" />
    <path
       style="fill:#0e0e0e;fill-opacity:1;stroke:none;stroke-width:1px;stroke-linecap:butt;stroke-linejoin:miter;stroke-opacity:1"
       d="m 1488,240 40,-72 h 24 l -40,72 z"
       id="path1001-1-7-6-2-96"
       sodipodi:nodetypes="ccccc" />
    <path
       style="fill:#0e0e0e;fill-opacity:1;stroke:none;stroke-width:1px;stroke-linecap:butt;stroke-linejoin:miter;stroke-opacity:1"
       d="m 1536,240 40,-72 h 24 l -40,72 z"
       id="path1001-1-7-6-2-9-1-2"
       sodipodi:nodetypes="ccccc" />
    <path
       style="fill:#0e0e0e;fill-opacity:1;stroke:none;stroke-width:1px;stroke-linecap:butt;stroke-linejoin:miter;stroke-opacity:1"
       d="m 1728,240 40,-72 h 24 l -40,72 z"
       id="path1001-1-7-6-2-3"
       sodipodi:nodetypes="ccccc" />
    <path
       style="fill:#0e0e0e;fill-opacity:1;stroke:none;stroke-width:1px;stroke-linecap:butt;stroke-linejoin:miter;stroke-opacity:1"
       d="m 1680,240 40,-72 h 24 l -40,72 z"
       id="path1001-1-7-6-2-3-8"
       sodipodi:nodetypes="ccccc"
       clip-path="url(#clipPath64956)"
       transform="translate(96)" />
    <path
       style="fill:#0e0e0e;fill-opacity:1;stroke:none;stroke-width:1.24722px;stroke-linecap:butt;stroke-linejoin:miter;stroke-opacity:1"
       d="m 1576,216 v -56 h 32 v 56 z"
       id="path1001-1-7-6-2-3-8-4-0"
       sodipodi:nodetypes="ccccc"
       clip-path="url(#clipPath64960)"
       transform="translate(-144)" />
    <path
       style="fill:#0e0e0e;fill-opacity:1;stroke:none;stroke-width:1px;stroke-linecap:butt;stroke-linejoin:miter;stroke-opacity:1"
       d="m 144,200 c -16,0 -24,-8 -24,-24 v -40 c 0,-16 8,-24 24,-24 h 176 c 16,0 24,8 24,24 v 40 c 0,16 -8,24 -24,24 z"
       id="path42176"
       sodipodi:nodetypes="ccccccccc" />
    <text
       xml:space="preserve"
       style="font-size:53.3333px;line-height:1.25;font-family:sans-serif"
       x="143.78082"
       y="174.32758"
       id="text7743"><tspan
         sodipodi:role="line"
         id="tspan7741"
         x="143.78082"
         y="174.32758"
         style="font-style:normal;font-variant:normal;font-weight:bold;font-stretch:normal;font-size:53.3333px;font-family:Montserrat;-inkscape-font-specification:'Montserrat Bold';fill:#ffffff;fill-opacity:1">LINUX</tspan></text>
    <path
       style="fill:#0e0e0e;fill-opacity:1;stroke:none;stroke-width:0.878669px;stroke-linecap:butt;stroke-linejoin:miter;stroke-opacity:1"
       d="m 792,720 c 42,-21.17647 84,-35.29412 133,-42.35294 -7,-42.35294 7,-84.70588 35,-84.70588 28,0 42,42.35294 35,84.70588 49,7.05882 91,21.17647 133,42.35294 -24.7061,-44.29099 -57.5254,-109.22374 -70,-134.11765 -28,-21.17647 -56,-28.23529 -56,-28.23529 0,0 35,0 49,14.11765 C 1022.583,511.90557 987.9614,436.53302 960,360 c -14.72414,40.30138 -33.38773,91.94074 -42,112.94118 21,21.17647 42,35.29411 42,35.29411 0,0 -28,-7.05882 -49,-21.17647 C 883.80131,547.50476 834.20233,644.34316 792,720 Z"
       id="path50635"
       sodipodi:nodetypes="ccccccccccccc" />
    <g
       id="g61794"
       transform="translate(120,-24)">
      <path
         style="fill:#0e0e0e;fill-opacity:1;stroke:#0e0e0e;stroke-width:20;stroke-linecap:round;stroke-linejoin:round;stroke-miterlimit:4;stroke-dasharray:none;stroke-opacity:1"
         d="m 1560,968 v -40 l 32,-16 32,16 v 40 l -32,16 z"
         id="path55504"
         sodipodi:nodetypes="ccccccc" />
      <circle
         style="fill:none;fill-opacity:1;stroke:#ffffff;stroke-width:12;stroke-linecap:round;stroke-linejoin:round;stroke-miterlimit:4;stroke-dasharray:none;stroke-dashoffset:1.98425;stroke-opacity:1"
         id="path61060"
         sodipodi:type="arc"
         sodipodi:cx="1820.7632"
         sodipodi:cy="-342.57495"
         sodipodi:rx="20"
         sodipodi:ry="20"
         sodipodi:start="0"
         sodipodi:end="4.9109491"
         sodipodi:open="true"
         sodipodi:arc-type="arc"
         d="m 1840.7632,-342.57495 a 20,20 0 0 1 -13.2726,18.8346 20,20 0 0 1 -22.2016,-6.16383 20,20 0 0 1 -1.6633,-22.98125 20,20 0 0 1 21.0826,-9.29655"
         transform="rotate(41.417295)" />
      <path
         style="fill:none;stroke:#ffffff;stroke-width:3;stroke-linecap:round;stroke-linejoin:round;stroke-miterlimit:4;stroke-dasharray:none;stroke-opacity:1"
         d="m 1612,944 v 8"
         id="path61377" />
      <path
         style="fill:none;stroke:#ffffff;stroke-width:3;stroke-linecap:round;stroke-linejoin:round;stroke-miterlimit:4;stroke-dasharray:none;stroke-opacity:1"
         d="m 1616,948 h -8"
         id="path61478" />
      <path
         style="fill:none;stroke:#ffffff;stroke-width:3;stroke-linecap:round;stroke-linejoin:round;stroke-miterlimit:4;stroke-dasharray:none;stroke-opacity:1"
         d="m 1624,944 v 8"
         id="path61377-2" />
      <path
         style="fill:none;stroke:#ffffff;stroke-width:3;stroke-linecap:round;stroke-linejoin:round;stroke-miterlimit:4;stroke-dasharray:none;stroke-opacity:1"
         d="m 1628,948 h -8"
         id="path61478-2" />
    </g>
    <g
       id="g112108">
      <path
         style="fill:#0e0e0e;fill-opacity:1;stroke:#0e0e0e;stroke-width:20;stroke-linecap:round;stroke-linejoin:round;stroke-miterlimit:4;stroke-dasharray:none;stroke-opacity:1"
         d="m 1576,944 v -40 l 32,-16 32,16 v 40 l -32,16 z"
         id="path55504-5"
         sodipodi:nodetypes="ccccccc" />
      <circle
         style="fill:none;fill-opacity:1;stroke:#ffffff;stroke-width:12;stroke-linecap:round;stroke-linejoin:round;stroke-miterlimit:4;stroke-dasharray:none;stroke-dashoffset:1.98425;stroke-opacity:1"
         id="path61060-0"
         sodipodi:type="arc"
         sodipodi:cx="1816.8849"
         sodipodi:cy="-371.15744"
         sodipodi:rx="20"
         sodipodi:ry="20"
         sodipodi:start="0"
         sodipodi:end="4.9109491"
         sodipodi:open="true"
         sodipodi:arc-type="arc"
         transform="rotate(41.417295)"
         d="m 1836.8849,-371.15744 a 20,20 0 0 1 -13.2726,18.8346 20,20 0 0 1 -22.2016,-6.16383 20,20 0 0 1 -1.6633,-22.98125 20,20 0 0 1 21.0826,-9.29655" />
    </g>
    <text
       xml:space="preserve"
       style="font-size:48px;line-height:1.25;font-family:sans-serif"
       x="314.39005"
       y="-345.66052"
       id="text68998"
       transform="rotate(90)"><tspan
         sodipodi:role="line"
         id="tspan68996"
         x="314.39005"
         y="-345.66052"
         style="font-style:normal;font-variant:normal;font-weight:bold;font-stretch:normal;font-size:48px;font-family:Montserrat;-inkscape-font-specification:'Montserrat Bold'">I USE <tspan
   style="font-size:48px;fill:#f69c6d;fill-opacity:1"
   id="tspan89112">ARCH</tspan>, BTW!</tspan></text>
  </g>
</svg>
