<?xml version="1.0" encoding="UTF-8" standalone="no"?>
<!-- Created with Inkscape (http://www.inkscape.org/) -->

<svg
   width="1920"
   height="1080"
   viewBox="0 0 1920 1080"
   version="1.1"
   id="svg5"
   inkscape:version="1.2.2 (b0a8486541, 2022-12-01)"
   sodipodi:docname="arch2.svg"
   inkscape:export-filename="arch2.png"
   inkscape:export-xdpi="96"
   inkscape:export-ydpi="96"
   xmlns:inkscape="http://www.inkscape.org/namespaces/inkscape"
   xmlns:sodipodi="http://sodipodi.sourceforge.net/DTD/sodipodi-0.dtd"
   xmlns="http://www.w3.org/2000/svg"
   xmlns:svg="http://www.w3.org/2000/svg">
  <sodipodi:namedview
     id="namedview7"
     pagecolor="#ffffff"
     bordercolor="#111111"
     borderopacity="1"
     inkscape:pageshadow="0"
     inkscape:pageopacity="0"
     inkscape:pagecheckerboard="1"
     inkscape:document-units="px"
     showgrid="false"
     inkscape:zoom="0.54407938"
     inkscape:cx="929.09237"
     inkscape:cy="561.49895"
     inkscape:window-width="1848"
     inkscape:window-height="1056"
     inkscape:window-x="60"
     inkscape:window-y="12"
     inkscape:window-maximized="1"
     inkscape:current-layer="layer1"
     inkscape:showpageshadow="0"
     inkscape:deskcolor="#d1d1d1">
    <inkscape:grid
       type="xygrid"
       id="grid824"
       spacingx="8"
       spacingy="8"
       empspacing="3" />
  </sodipodi:namedview>
  <defs
     id="defs2">
    <clipPath
       clipPathUnits="userSpaceOnUse"
       id="clipPath3056">
      <rect
         style="fill:#ffffff;fill-opacity:1;stroke:none;stroke-width:0.454235;stroke-linecap:round;stroke-linejoin:round;stroke-dashoffset:1.98425"
         id="rect3058"
         width="144"
         height="288"
         x="48"
         y="288" />
    </clipPath>
    <clipPath
       clipPathUnits="userSpaceOnUse"
       id="clipPath3060">
      <rect
         style="fill:#ffffff;fill-opacity:1;stroke:none;stroke-width:0.454235;stroke-linecap:round;stroke-linejoin:round;stroke-dashoffset:1.98425"
         id="rect3062"
         width="144"
         height="288"
         x="1728"
         y="504" />
    </clipPath>
    <clipPath
       clipPathUnits="userSpaceOnUse"
       id="clipPath3060-5">
      <rect
         style="fill:#ffffff;fill-opacity:1;stroke:none;stroke-width:0.454235;stroke-linecap:round;stroke-linejoin:round;stroke-dashoffset:1.98425"
         id="rect3062-5"
         width="144"
         height="288"
         x="1728"
         y="504" />
    </clipPath>
    <clipPath
       clipPathUnits="userSpaceOnUse"
       id="clipPath3056-0">
      <rect
         style="fill:#ffffff;fill-opacity:1;stroke:none;stroke-width:0.454235;stroke-linecap:round;stroke-linejoin:round;stroke-dashoffset:1.98425"
         id="rect3058-2"
         width="144"
         height="288"
         x="48"
         y="288" />
    </clipPath>
    <clipPath
       clipPathUnits="userSpaceOnUse"
       id="clipPath64956">
      <path
         style="fill:#0e0e0e;fill-opacity:1;stroke:none;stroke-width:1.24722px;stroke-linecap:butt;stroke-linejoin:miter;stroke-opacity:1"
         d="m 1672,248 v -56 h 32 v 56 z"
         id="path64958"
         sodipodi:nodetypes="ccccc" />
    </clipPath>
    <clipPath
       clipPathUnits="userSpaceOnUse"
       id="clipPath64960">
      <path
         style="fill:#0e0e0e;fill-opacity:1;stroke:none;stroke-width:1px;stroke-linecap:butt;stroke-linejoin:miter;stroke-opacity:1"
         d="m 1536,240 40,-72 h 24 l -40,72 z"
         id="path64962"
         sodipodi:nodetypes="ccccc" />
    </clipPath>
  </defs>
  <g
     inkscape:label="Layer 1"
     inkscape:groupmode="layer"
     id="layer1">
    <rect
       style="fill:#d8e2dc;stroke:none;stroke-width:1.2063;stroke-linecap:round;stroke-linejoin:round;stroke-dashoffset:1.98425;fill-opacity:1"
       id="rect848"
       width="1920"
       height="1080"
       x="0"
       y="0" />
    <title
       id="title512">VSCodium</title>
    <title
       id="title500">Zig</title>
    <path
       style="fill:#ffffff;fill-opacity:1;stroke:none;stroke-width:1px;stroke-linecap:butt;stroke-linejoin:miter;stroke-opacity:1"
       d="M -168,768 48,312 H 168 L -48,768 Z"
       id="path1001"
       sodipodi:nodetypes="ccccc"
       clip-path="url(#clipPath3056)" />
    <path
       style="fill:#ffffff;fill-opacity:1;stroke:none;stroke-width:1px;stroke-linecap:butt;stroke-linejoin:miter;stroke-opacity:1"
       d="M 72,768 288,312 H 408 L 192,768 Z"
       id="path1001-1"
       sodipodi:nodetypes="ccccc" />
    <path
       style="fill:#ffffff;fill-opacity:1;stroke:none;stroke-width:1px;stroke-linecap:butt;stroke-linejoin:miter;stroke-opacity:1"
       d="M 312,768 528,312 H 648 L 432,768 Z"
       id="path1001-2"
       sodipodi:nodetypes="ccccc" />
    <path
       style="fill:#ffffff;fill-opacity:1;stroke:none;stroke-width:1px;stroke-linecap:butt;stroke-linejoin:miter;stroke-opacity:1"
       d="M 552,768 768,312 H 888 L 672,768 Z"
       id="path1001-1-7"
       sodipodi:nodetypes="ccccc" />
    <path
       style="fill:#ffffff;fill-opacity:1;stroke:none;stroke-width:1px;stroke-linecap:butt;stroke-linejoin:miter;stroke-opacity:1"
       d="m 792,768 216,-456 h 120 L 912,768 Z"
       id="path1001-0"
       sodipodi:nodetypes="ccccc" />
    <path
       style="fill:#ffffff;fill-opacity:1;stroke:none;stroke-width:1px;stroke-linecap:butt;stroke-linejoin:miter;stroke-opacity:1"
       d="m 1032,768 216,-456 h 120 l -216,456 z"
       id="path1001-1-9"
       sodipodi:nodetypes="ccccc" />
    <path
       style="fill:#ffffff;fill-opacity:1;stroke:none;stroke-width:1px;stroke-linecap:butt;stroke-linejoin:miter;stroke-opacity:1"
       d="m 1272,768 216,-456 h 120 l -216,456 z"
       id="path1001-2-3"
       sodipodi:nodetypes="ccccc" />
    <path
       style="fill:#ffffff;fill-opacity:1;stroke:none;stroke-width:1px;stroke-linecap:butt;stroke-linejoin:miter;stroke-opacity:1"
       d="m 1512,768 216,-456 h 120 l -216,456 z"
       id="path1001-1-7-6"
       sodipodi:nodetypes="ccccc" />
    <path
       style="fill:#ffffff;fill-opacity:1;stroke:none;stroke-width:1px;stroke-linecap:butt;stroke-linejoin:miter;stroke-opacity:1"
       d="m 1752,768 216,-456 h 120 l -216,456 z"
       id="path1001-1-7-6-0"
       sodipodi:nodetypes="ccccc"
       clip-path="url(#clipPath3060)" />
    <path
       style="fill:#0e0e0e;fill-opacity:1;stroke:none;stroke-width:1px;stroke-linecap:butt;stroke-linejoin:miter;stroke-opacity:1"
       d="m 1584,240 40,-72 h 24 l -40,72 z"
       id="path1001-1-7-6-2"
       sodipodi:nodetypes="ccccc" />
    <path
       style="fill:#0e0e0e;fill-opacity:1;stroke:none;stroke-width:1px;stroke-linecap:butt;stroke-linejoin:miter;stroke-opacity:1"
       d="m 1680,240 40,-72 h 24 l -40,72 z"
       id="path1001-1-7-6-2-9"
       sodipodi:nodetypes="ccccc" />
    <path
       style="fill:#0e0e0e;fill-opacity:1;stroke:none;stroke-width:1px;stroke-linecap:butt;stroke-linejoin:miter;stroke-opacity:1"
       d="m 1632,240 40,-72 h 24 l -40,72 z"
       id="path1001-1-7-6-2-9-1"
       sodipodi:nodetypes="ccccc" />
    <path
       style="fill:#0e0e0e;fill-opacity:1;stroke:none;stroke-width:1px;stroke-linecap:butt;stroke-linejoin:miter;stroke-opacity:1"
       d="m 1440,240 40,-72 h 24 l -40,72 z"
       id="path1001-1-7-6-2-9-1-5"
       sodipodi:nodetypes="ccccc" />
    <path
       style="fill:#0e0e0e;fill-opacity:1;stroke:none;stroke-width:1px;stroke-linecap:butt;stroke-linejoin:miter;stroke-opacity:1"
       d="m 1488,240 40,-72 h 24 l -40,72 z"
       id="path1001-1-7-6-2-96"
       sodipodi:nodetypes="ccccc" />
    <path
       style="fill:#0e0e0e;fill-opacity:1;stroke:none;stroke-width:1px;stroke-linecap:butt;stroke-linejoin:miter;stroke-opacity:1"
       d="m 1536,240 40,-72 h 24 l -40,72 z"
       id="path1001-1-7-6-2-9-1-2"
       sodipodi:nodetypes="ccccc" />
    <path
       style="fill:#0e0e0e;fill-opacity:1;stroke:none;stroke-width:1px;stroke-linecap:butt;stroke-linejoin:miter;stroke-opacity:1"
       d="m 1728,240 40,-72 h 24 l -40,72 z"
       id="path1001-1-7-6-2-3"
       sodipodi:nodetypes="ccccc" />
    <path
       style="fill:#0e0e0e;fill-opacity:1;stroke:none;stroke-width:1px;stroke-linecap:butt;stroke-linejoin:miter;stroke-opacity:1"
       d="m 1680,240 40,-72 h 24 l -40,72 z"
       id="path1001-1-7-6-2-3-8"
       sodipodi:nodetypes="ccccc"
       clip-path="url(#clipPath64956)"
       transform="translate(96)" />
    <path
       style="fill:#0e0e0e;fill-opacity:1;stroke:none;stroke-width:1.24722px;stroke-linecap:butt;stroke-linejoin:miter;stroke-opacity:1"
       d="m 1576,216 v -56 h 32 v 56 z"
       id="path1001-1-7-6-2-3-8-4-0"
       sodipodi:nodetypes="ccccc"
       clip-path="url(#clipPath64960)"
       transform="translate(-144)" />
    <path
       style="fill:#0e0e0e;fill-opacity:1;stroke:none;stroke-width:1px;stroke-linecap:butt;stroke-linejoin:miter;stroke-opacity:1"
       d="m 144,200 c -16,0 -24,-8 -24,-24 v -40 c 0,-16 8,-24 24,-24 h 176 c 16,0 24,8 24,24 v 40 c 0,16 -8,24 -24,24 z"
       id="path42176"
       sodipodi:nodetypes="ccccccccc" />
    <text
       xml:space="preserve"
       style="font-size:53.3333px;line-height:1.25;font-family:sans-serif"
       x="143.78082"
       y="174.32758"
       id="text7743"><tspan
         sodipodi:role="line"
         id="tspan7741"
         x="143.78082"
         y="174.32758"
         style="font-style:normal;font-variant:normal;font-weight:bold;font-stretch:normal;font-size:53.3333px;font-family:Montserrat;-inkscape-font-specification:'Montserrat Bold';fill:#ffffff;fill-opacity:1">LINUX</tspan></text>
    <path
       style="fill:#0e0e0e;fill-opacity:1;stroke:none;stroke-width:0.878669px;stroke-linecap:butt;stroke-linejoin:miter;stroke-opacity:1"
       d="m 792,720 c 42,-21.17647 84,-35.29412 133,-42.35294 -7,-42.35294 7,-84.70588 35,-84.70588 28,0 42,42.35294 35,84.70588 49,7.05882 91,21.17647 133,42.35294 -24.7061,-44.29099 -57.5254,-109.22374 -70,-134.11765 -28,-21.17647 -56,-28.23529 -56,-28.23529 0,0 35,0 49,14.11765 C 1022.583,511.90557 987.9614,436.53302 960,360 c -14.72414,40.30138 -33.38773,91.94074 -42,112.94118 21,21.17647 42,35.29411 42,35.29411 0,0 -28,-7.05882 -49,-21.17647 C 883.80131,547.50476 834.20233,644.34316 792,720 Z"
       id="path50635"
       sodipodi:nodetypes="ccccccccccccc" />
    <text
       xml:space="preserve"
       style="font-size:48px;line-height:1.25;font-family:sans-serif"
       x="314.39005"
       y="-345.66052"
       id="text68998"
       transform="rotate(90)"><tspan
         sodipodi:role="line"
         id="tspan68996"
         x="314.39005"
         y="-345.66052"
         style="font-style:normal;font-variant:normal;font-weight:bold;font-stretch:normal;font-size:48px;font-family:Montserrat;-inkscape-font-specification:'Montserrat Bold'">I USE <tspan
   style="font-size:48px;fill:#f69c6d;fill-opacity:1"
   id="tspan89112">ARCH</tspan>, BTW!</tspan></text>
    <title
       id="title488">Go</title>
    <path
       style="fill:#000000;fill-opacity:1;stroke-width:1.88976;stroke-linecap:round;stroke-linejoin:round"
       d="m 1800,904 c 0,-8 -8,-16 -16,-16 h -64 c -8,0 -16,8 -16,16 v 64 c 0,8 8,16 16,16 h 64 c 8,0 16,-8 16,-16 z"
       id="path587"
       sodipodi:nodetypes="ccccccccc" />
    <path
       style="fill:#000000;fill-opacity:1;stroke-width:1.88976;stroke-linecap:round;stroke-linejoin:round"
       d="m 1680,904 c 0,-8 -8,-16 -16,-16 h -64 c -8,0 -16,8 -16,16 v 64 c 0,8 8,16 16,16 h 64 c 8,0 16,-8 16,-16 z"
       id="path587-5"
       sodipodi:nodetypes="ccccccccc" />
    <path
       d="m 1718.0366,930.10407 c -0.1565,0 -0.1931,-0.0767 -0.1166,-0.19667 l 0.8201,-1.04999 c 0.076,-0.11667 0.2699,-0.19334 0.4267,-0.19334 h 13.9065 c 0.1533,0 0.1933,0.11668 0.1167,0.23333 l -0.6634,1.01 c -0.076,0.11999 -0.2733,0.23333 -0.39,0.23333 z m -5.8799,3.5833 c -0.1566,0 -0.1965,-0.0767 -0.1167,-0.19332 l 0.8167,-1.05333 c 0.077,-0.11667 0.2734,-0.19333 0.4301,-0.19333 h 17.7598 c 0.1568,0 0.2333,0.11668 0.1933,0.23333 l -0.3099,0.93332 c -0.04,0.15668 -0.1933,0.23333 -0.3501,0.23333 z m 9.4267,3.58333 c -0.1567,0 -0.1966,-0.11667 -0.1167,-0.23334 l 0.5433,-0.97332 c 0.076,-0.11666 0.2333,-0.23334 0.39,-0.23334 h 7.79 c 0.1566,0 0.2334,0.11668 0.2334,0.27333 l -0.077,0.93333 c 0,0.15666 -0.1566,0.27332 -0.2733,0.27332 z m 40.4298,-7.86663 c -2.4534,0.62332 -4.13,1.09 -6.5434,1.71332 -0.5867,0.15333 -0.6233,0.19333 -1.1333,-0.38998 -0.58,-0.66334 -1.0099,-1.09 -1.8267,-1.48001 -2.4566,-1.20665 -4.8333,-0.85666 -7.0499,0.58333 -2.65,1.71333 -4.0133,4.24664 -3.9733,7.39997 0.037,3.11664 2.1801,5.68663 5.2566,6.11663 2.6501,0.34999 4.8666,-0.58334 6.6234,-2.56666 0.3499,-0.43333 0.6599,-0.89999 1.0499,-1.44665 h -7.5167 c -0.8166,0 -1.0132,-0.50668 -0.7399,-1.16667 0.5066,-1.20666 1.4399,-3.23332 1.9866,-4.24664 a 1.0499939,1.0499939 0 0 1 0.9733,-0.62333 h 14.1767 c -0.076,1.05333 -0.076,2.10332 -0.2335,3.15664 a 16.609904,16.609904 0 0 1 -3.1931,7.63329 c -2.8034,3.69999 -6.4668,5.99997 -11.1,6.61997 -3.8166,0.50667 -7.3633,-0.23333 -10.4767,-2.56665 -2.8831,-2.18332 -4.5199,-5.06664 -4.9465,-8.64996 -0.5067,-4.24663 0.7399,-8.06327 3.3098,-11.41326 2.7667,-3.61998 6.4268,-5.91996 10.9066,-6.73329 3.66,-0.66666 7.1668,-0.23334 10.3201,1.90332 2.0666,1.36666 3.5433,3.23333 4.52,5.4933 0.2333,0.34999 0.076,0.54668 -0.39,0.66667 m 12.8932,21.53652 c -3.5467,-0.0799 -6.78,-1.0933 -9.5066,-3.42997 a 12.216596,12.216596 0 0 1 -4.2067,-7.51662 c -0.7,-4.39997 0.5067,-8.29662 3.1567,-11.76326 2.8434,-3.73999 6.27,-5.68664 10.9067,-6.49997 3.9732,-0.69998 7.7131,-0.31665 11.0998,1.98332 3.0766,2.1 4.9868,4.94664 5.4933,8.68329 0.66,5.25996 -0.8566,9.54328 -4.4799,13.20659 -2.57,2.60999 -5.7267,4.24332 -9.3499,4.9833 -1.0502,0.2 -2.1,0.23334 -3.1134,0.35332 z m 9.2666,-15.73322 c -0.037,-0.50999 -0.037,-0.89999 -0.1134,-1.29 -0.7,-3.85664 -4.2465,-6.03329 -7.9465,-5.17997 -3.6233,0.81666 -5.9599,3.11665 -6.8166,6.77664 -0.7001,3.03997 0.7799,6.11661 3.5833,7.36662 2.1432,0.93333 4.2832,0.81332 6.3499,-0.23333 3.0766,-1.59999 4.7501,-4.09332 4.9466,-7.4433 z"
       id="path490"
       style="fill:#ffffff;fill-opacity:1;stroke-width:3.33332" />
    <path
       d="m 1657.2021,911.99998 -16.7999,7.54096 h -15.4316 l -6.5137,7.54528 h 15.6787 l -27.3377,32.9138 16.789,-7.8842 h 15.4427 v 0 l 6.5092,-7.541 h -15.624 l 27.283,-32.56826 z m -51.4315,7.54096 v 32.57048 h 4.1158 l 6.5136,-7.541 h -3.0863 v -17.4863 h 2.0591 l 6.1726,-7.54099 h -15.7748 z m 48.343,0 -6.5136,7.88628 h 3.0863 v 17.1454 h -2.059 l -6.5136,7.541 h 16.1157 v -32.57268 z"
       id="path502"
       style="fill:#f69c6d;fill-opacity:1;stroke-width:2.18578" />
    <path
       style="fill:#000000;fill-opacity:1;stroke-width:1.88976;stroke-linecap:round;stroke-linejoin:round"
       d="m 1560,904 c 0,-8 -8,-16 -16,-16 h -64 c -8,0 -16,8 -16,16 v 64 c 0,8 8,16 16,16 h 64 c 8,0 16,-8 16,-16 z"
       id="path587-3"
       sodipodi:nodetypes="ccccccccc" />
    <path
       d="m 1518.5905,912.8304 c 0.3154,-0.49728 0.8794,-0.828 1.4718,-0.8304 0.8298,-0.002 1.62,0.46416 2.1004,1.128 0.4526,0.63456 0.5924,1.43664 0.5932,2.20272 0,1.07712 -0.2552,2.1355 -0.551,3.16606 -0.7386,2.43216 -1.7424,4.77406 -2.4922,7.20334 -0.8256,2.75664 -1.2216,5.82862 -0.112,8.56559 0.5798,-1.61857 1.1534,-3.24049 1.7314,-4.86095 0.164,-0.42816 0.38,-0.91488 0.839,-1.09056 0.6388,-0.22752 1.2902,0.4392 1.2714,1.05648 -0.174,0.89902 -0.5136,1.75582 -0.7804,2.6304 -2.1614,6.49725 -4.582,12.90475 -6.913,19.34345 3.0998,-2.8344 6.2094,-5.65822 9.313,-8.48734 0.8932,-0.81312 1.8618,-1.6992 2.1354,-2.928 0.2732,-1.20622 -0.2346,-2.40334 -0.8102,-3.43918 -0.6648,-1.236 -1.5134,-2.4115 -1.8254,-3.80255 -0.158,-0.72048 -0.11,-1.54944 0.3764,-2.13984 0.3504,-0.44448 0.9882,-0.67392 1.5264,-0.45696 0.5312,0.20304 0.852,0.71328 1.103,1.1952 a 15.516922,15.516922 0 0 1 1.5504,5.42351 c 0.576,-1.16208 1.1586,-2.31934 1.7356,-3.48046 0.3486,-0.68401 0.6562,-1.41793 1.2216,-1.95841 0.3414,-0.33696 0.8386,-0.54912 1.32,-0.43968 0.6038,0.1334 1.0278,0.68256 1.19,1.2528 0.184,0.60576 -0.02,1.23649 -0.206,1.81201 -0.5818,1.60942 -1.4956,3.06574 -2.3764,4.5235 -1.2278,1.9296 -2.532,3.81262 -3.9558,5.604 0.8136,-0.54338 1.6704,-1.11506 2.667,-1.2288 0.9426,-0.1262 1.9848,0.42574 2.2968,1.3459 0.2088,0.6264 -0.13,1.33536 -0.6966,1.64112 -0.8322,0.46416 -1.8172,0.45792 -2.7422,0.4992 -3.3566,0.0922 -6.6278,1.7448 -8.7104,4.37566 -1.6436,2.09808 -2.4832,4.70494 -4.1512,6.78574 -1.052,1.26816 -2.5386,2.8603 -4.174,2.50846 -2.1778,-0.468 -2.1778,-3.87166 -2.7206,-5.55886 -0.2798,-0.85054 -0.805,-1.62766 -1.5336,-2.15806 -0.637,-0.4704 -1.3996,-0.74016 -2.1706,-0.888 -1.7698,-0.33984 -3.5952,-0.1604 -5.3606,-0.52512 -0.8836,-0.18 -1.754,-0.53424 -2.4288,-1.14528 -0.6432,-0.56448 -1.0876,-1.32 -1.3958,-2.11054 -0.6652,-1.72224 -0.8006,-3.59088 -1.392,-5.33472 -0.8558,-2.5104 -2.5492,-4.7299 -4.7548,-6.20398 -0.4652,-0.31392 -0.9706,-0.62014 -1.2716,-1.10974 -0.2448,-0.38256 -0.2232,-0.9264 0.098,-1.26 0.5406,-0.58848 1.5174,-0.63696 2.1418,-0.1502 1.2796,0.90768 1.4644,2.6712 2.6572,3.65806 0,-1.6291 0,-3.2568 0,-4.88495 0,-0.4704 -0.048,-0.9768 0.186,-1.40448 0.2142,-0.40512 0.8064,-0.51504 1.1506,-0.2112 0.4652,0.38976 0.6068,1.02576 0.673,1.60128 0.2314,2.24401 0.455,4.48895 0.6874,6.73439 1.1692,-1.05024 1.7064,-2.75472 1.328,-4.2835 -0.114,-0.48816 -0.3004,-0.99024 -0.196,-1.49664 0.086,-0.42481 0.5366,-0.72385 0.9614,-0.64801 0.4776,0.0648 0.8184,0.47425 0.9974,0.89473 0.2852,0.69694 0.286,1.4731 0.2284,2.21326 -0.17,1.68576 -0.8826,3.2424 -1.3746,4.84656 -0.4796,1.416 -0.8094,2.98942 -0.3288,4.45198 0.4282,1.36752 1.5134,2.44846 2.7868,3.06142 1.572,0.77232 3.3428,1.01232 5.075,1.08048 -1.053,-1.8432 -2.1984,-3.79342 -2.1786,-5.98606 0.02,-2.20752 1.4242,-4.06702 1.8034,-6.19774 0.646,-3.5347 -0.949,-7.37711 -3.9184,-9.40509 -1.319,-0.90624 -2.9024,-1.30944 -4.2576,-2.14992 -1.2258,-0.75024 -2.327,-2.0856 -2.1344,-3.60622 0.9312,-0.36048 1.9708,-0.13 2.8112,0.35376 1.6426,0.87648 2.6876,2.53822 4.3384,3.40126 a 3.5476603,3.5476603 0 0 0 1.905,0.43248 c 0.3576,-0.85728 0,-1.81728 -0.577,-2.48496 -1.0852,-1.3075 -2.9168,-1.6248 -4.0516,-2.8747 -0.5688,-0.65232 -0.886,-1.58448 -0.647,-2.43744 0.194,-0.67392 0.8918,-1.1328 1.5864,-1.08192 1.0286,0.0638 1.9142,0.708 2.6174,1.41696 2.3266,2.3256 3.6652,5.4888 4.1904,8.70334 0.6202,3.7915 0.138,7.65935 -0.6254,11.39277 -0.142,0.7608 -0.4094,1.5408 -0.2122,2.31744 0.086,0.3595 0.3442,0.73054 0.7426,0.7627 0.5476,0.035 1.0002,-0.33792 1.3992,-0.6648 1.2474,-1.01902 2.2392,-2.39086 2.648,-3.9619 0.3198,-1.14528 0.3288,-2.3443 0.3064,-3.52366 0,-0.58993 -0.038,-1.24129 0.3152,-1.75201 0.252,-0.39456 0.7224,-0.70464 1.2064,-0.58992 0.3792,0.072 0.648,0.4008 0.7636,0.75312 0.186,0.58032 0.158,1.20673 0.046,1.79857 -0.3566,1.63342 -0.6792,3.288 -1.3252,4.83886 -0.456,1.11312 -1.072,2.17152 -1.9062,3.04368 -0.9196,0.97486 -2.0558,1.7563 -2.7968,2.89246 -0.5056,0.77616 -0.8324,1.74048 -0.613,2.66784 0.16,0.73966 0.7234,1.3435 1.4026,1.65166 0.9892,0.45168 2.1902,0.42864 3.1544,-0.0796 0.7652,-0.41376 1.309,-1.12894 1.742,-1.86382 0.7626,-1.32192 1.225,-2.78976 1.6084,-4.25952 0.59,-2.3731 0.9374,-4.8062 1.0738,-7.24798 0.156,-2.60783 -0.3172,-5.30447 -1.632,-7.58253 -0.6988,-1.21968 -1.6872,-2.2584 -2.8416,-3.05328 -1.0396,-0.77328 -2.183,-1.44288 -3.0264,-2.44462 -0.7886,-0.92832 -1.3354,-2.18112 -1.0482,-3.41328 0.5394,-0.33888 1.2206,-0.39792 1.8182,-0.1858 1.1274,0.38352 2.0106,1.2888 2.58,2.31312 0.7732,1.2072 1.4184,2.64382 2.7806,3.2995 -1.1084,-2.18014 -2.2512,-4.34158 -3.373,-6.51406 -0.3648,-0.73392 -0.7244,-1.536 -0.6292,-2.3755 0.07,-0.63984 0.6632,-1.16448 1.305,-1.1616 0.5698,0.002 1.104,0.32256 1.4434,0.76896 0.3874,0.50256 0.5726,1.12176 0.7474,1.7232 0.8938,3.11134 1.787,6.22124 2.6842,9.33164 1.1274,-2.148 1.604,-4.6368 1.2834,-7.04734 -0.14,-1.27776 -0.5154,-2.51182 -0.813,-3.7584 -0.2026,-0.8155 -0.142,-1.73038 0.3234,-2.44846 z"
       id="path514"
       style="fill:#ffffff;fill-opacity:1;stroke-width:2" />
  </g>
</svg>
